<svg width="3406" height="1903" xmlns="http://www.w3.org/2000/svg" xmlns:xlink="http://www.w3.org/1999/xlink" xml:space="preserve" overflow="hidden"><g transform="translate(-483 -335)"><path d="M493 2139.25 3735.71 2139.25 3735.71 2166.75 493 2166.75ZM3721.96 2111.75 3804.46 2153 3721.96 2194.25Z"/><rect x="493.5" y="1854.5" width="884" height="266" stroke="#000055" stroke-width="20.625" stroke-miterlimit="8" fill="#B8B8B8"/><text font-family="Arial,Arial_MSFontService,sans-serif" font-weight="700" font-size="64" transform="matrix(1 0 0 1 540.905 1961)">Fixation Cross (Baseline): </text><text font-family="Arial,Arial_MSFontService,sans-serif" font-weight="700" font-size="83" transform="matrix(1 0 0 1 889.239 2056)">4s</text><rect x="1377.5" y="1588.5" width="532" height="266" stroke="#000055" stroke-width="20.625" stroke-miterlimit="8" fill="#B8B8B8"/><text font-family="Arial,Arial_MSFontService,sans-serif" font-weight="700" font-size="73" transform="matrix(1 0 0 1 1490.77 1748)">Cues: 1s</text><rect x="1377.5" y="1854.5" width="1495" height="266" stroke="#000000" stroke-width="20.625" stroke-miterlimit="8" fill="#B8B8B8"/><text font-family="Arial,Arial_MSFontService,sans-serif" font-weight="700" font-size="73" transform="matrix(1 0 0 1 1797.92 2021)">Motor Imagery: </text><text font-family="Arial,Arial_MSFontService,sans-serif" font-weight="700" font-size="92" transform="matrix(1 0 0 1 2349.07 2021)">6s</text><rect x="2872.5" y="1854.5" width="747" height="266" stroke="#000055" stroke-width="20.625" stroke-miterlimit="8" fill="#B8B8B8"/><text font-family="Arial,Arial_MSFontService,sans-serif" font-weight="700" font-size="73" transform="matrix(1 0 0 1 2932.22 1959)">Inter</text><text font-family="Arial,Arial_MSFontService,sans-serif" font-weight="700" font-size="73" transform="matrix(1 0 0 1 3091.49 1959)">-</text><text font-family="Arial,Arial_MSFontService,sans-serif" font-weight="700" font-size="73" transform="matrix(1 0 0 1 3116.13 1959)">trial interval: </text><text font-family="Arial,Arial_MSFontService,sans-serif" font-weight="700" font-size="92" transform="matrix(1 0 0 1 3194.05 2065)">4s</text><rect x="667.5" y="943.5" width="536" height="313" stroke="#181818" stroke-width="4.58333" stroke-miterlimit="8"/><path d="M904.634 1091.09 926.092 1091.09 926.092 1071.1 944.908 1071.1 944.908 1091.09 966.366 1091.09 966.366 1109.91 944.908 1109.91 944.908 1129.9 926.092 1129.9 926.092 1109.91 904.634 1109.91Z" stroke="#FFFFFF" stroke-width="4.58333" stroke-miterlimit="8" fill="#FFFFFF" fill-rule="evenodd"/><rect x="1374.5" y="943.5" width="535" height="313" stroke="#181818" stroke-width="4.58333" stroke-miterlimit="8"/><path d="M1611.63 1090.09 1633.09 1090.09 1633.09 1070.1 1651.91 1070.1 1651.91 1090.09 1673.37 1090.09 1673.37 1108.91 1651.91 1108.91 1651.91 1128.9 1633.09 1128.9 1633.09 1108.91 1611.63 1108.91Z" stroke="#FFFFFF" stroke-width="4.58333" stroke-miterlimit="8" fill="#FFFFFF" fill-rule="evenodd"/><path d="M1755.5 1038.5 1882.5 1099.5 1755.5 1160.5Z" stroke="#FFFFFF" stroke-width="4.58333" stroke-miterlimit="8" fill="#FFFFFF" fill-rule="evenodd"/><rect x="1376.5" y="506.5" width="535" height="313" stroke="#181818" stroke-width="4.58333" stroke-miterlimit="8"/><path d="M1612.63 653.092 1634.09 653.092 1634.09 633.104 1652.91 633.104 1652.91 653.092 1674.37 653.092 1674.37 671.908 1652.91 671.908 1652.91 691.896 1634.09 691.896 1634.09 671.908 1612.63 671.908Z" stroke="#FFFFFF" stroke-width="4.58333" stroke-miterlimit="8" fill="#FFFFFF" fill-rule="evenodd"/><path d="M0 127 61 0 122 127Z" stroke="#FFFFFF" stroke-width="4.58333" stroke-miterlimit="8" fill="#FFFFFF" fill-rule="evenodd" transform="matrix(1.83697e-16 1 1 -1.83697e-16 1425.5 601.5)"/><rect x="2124.5" y="943.5" width="536" height="313" stroke="#181818" stroke-width="4.58333" stroke-miterlimit="8"/><path d="M2361.63 1090.09 2383.09 1090.09 2383.09 1070.1 2401.91 1070.1 2401.91 1090.09 2423.37 1090.09 2423.37 1108.91 2401.91 1108.91 2401.91 1128.9 2383.09 1128.9 2383.09 1108.91 2361.63 1108.91Z" stroke="#FFFFFF" stroke-width="4.58333" stroke-miterlimit="8" fill="#FFFFFF" fill-rule="evenodd"/><rect x="2977.5" y="943.5" width="536" height="313" stroke="#181818" stroke-width="4.58333" stroke-miterlimit="8"/><path d="M0 0 174.622 616.738" stroke="#A6A6A6" stroke-width="13.75" stroke-miterlimit="8" stroke-dasharray="55 41.25 13.75 41.25" fill="none" fill-rule="evenodd" transform="matrix(-1 0 0 1 667.622 1238)"/><path d="M1203 1256 1377.62 1852.44" stroke="#A6A6A6" stroke-width="13.75" stroke-miterlimit="8" stroke-dasharray="55 41.25 13.75 41.25" fill="none" fill-rule="evenodd"/><path d="M0 0 205.725 581.851" stroke="#A6A6A6" stroke-width="13.75" stroke-miterlimit="8" stroke-dasharray="55 41.25 13.75 41.25" fill="none" fill-rule="evenodd" transform="matrix(-1 0 0 1 2118.73 1271)"/><path d="M2654 1279 2871.4 1852.63" stroke="#A6A6A6" stroke-width="13.75" stroke-miterlimit="8" stroke-dasharray="55 41.25 13.75 41.25" fill="none" fill-rule="evenodd"/><path d="M0 0 2.35735 333.589" stroke="#A6A6A6" stroke-width="13.75" stroke-miterlimit="8" stroke-dasharray="55 41.25 13.75 41.25" fill="none" fill-rule="evenodd" transform="matrix(-1 0 0 1 1383.36 1255)"/><path d="M0 0 2.35735 333.589" stroke="#A6A6A6" stroke-width="13.75" stroke-miterlimit="8" stroke-dasharray="55 41.25 13.75 41.25" fill="none" fill-rule="evenodd" transform="matrix(-1 0 0 1 1902.36 1254)"/><g><g><g><path d="M161.547 48.3541 152.975 56.926C180.229 84.1801 180.229 128.578 152.975 155.832L161.547 164.404C193.636 132.534 193.636 80.4436 161.547 48.3541Z" fill="#7F7F7F" transform="matrix(1.00474 0 0 1 1298 411)"/><path d="M144.183 65.4978 135.611 74.0697C153.414 91.8728 153.414 120.665 135.611 138.688L144.183 147.26C166.822 124.622 166.822 88.1363 144.183 65.4978Z" fill="#7F7F7F" transform="matrix(1.00474 0 0 1 1298 411)"/><path d="M127.259 83.0811 118.687 91.653C127.039 100.005 127.039 113.412 118.687 121.764L127.259 130.336C140.447 117.149 140.447 96.0488 127.259 83.0811Z" fill="#7F7F7F" transform="matrix(1.00474 0 0 1 1298 411)"/><path d="M7.6927 76.0478 7.6927 134.952 50.3322 134.952 105.5 180.229 105.5 30.7708 50.3322 76.0478Z" fill="#7F7F7F" transform="matrix(1.00474 0 0 1 1298 411)"/></g></g></g><g><g><g><path d="M161.547 48.3542 152.975 56.9261C180.229 84.1802 180.229 128.578 152.975 155.832L161.547 164.404C193.637 132.534 193.637 80.4438 161.547 48.3542Z" fill="#7F7F7F" transform="matrix(1.00474 0 0 1 1793 844)"/><path d="M144.183 65.4979 135.612 74.0698C153.415 91.8729 153.415 120.666 135.612 138.689L144.183 147.26C166.822 124.622 166.822 88.1365 144.183 65.4979Z" fill="#7F7F7F" transform="matrix(1.00474 0 0 1 1793 844)"/><path d="M127.259 83.0813 118.688 91.6532C127.04 100.005 127.04 113.413 118.688 121.765L127.259 130.337C140.447 117.149 140.447 96.049 127.259 83.0813Z" fill="#7F7F7F" transform="matrix(1.00474 0 0 1 1793 844)"/><path d="M7.69271 76.0479 7.69271 134.952 50.3323 134.952 105.5 180.229 105.5 30.7708 50.3323 76.0479Z" fill="#7F7F7F" transform="matrix(1.00474 0 0 1 1793 844)"/></g></g></g><path d="M0 0 99.9538 581.851" stroke="#A6A6A6" stroke-width="13.75" stroke-miterlimit="8" stroke-dasharray="55 41.25 13.75 41.25" fill="none" fill-rule="evenodd" transform="matrix(-1 0 0 1 2976.95 1271)"/><path d="M3513 1269 3618.76 1852.34" stroke="#A6A6A6" stroke-width="13.75" stroke-miterlimit="8" stroke-dasharray="55 41.25 13.75 41.25" fill="none" fill-rule="evenodd"/><text fill="#000080" font-family="Arial,Arial_MSFontService,sans-serif" font-weight="400" font-size="83" transform="matrix(1 0 0 1 865.475 440)">Higher Pitch</text><text fill="#000080" font-family="Arial,Arial_MSFontService,sans-serif" font-weight="400" font-size="83" transform="matrix(1 0 0 1 1934.65 859)">Lower Pitch</text></g></svg>